<?xml version="1.0" encoding="utf-8"?>
<!-- Generator: Adobe Illustrator 17.1.0, SVG Export Plug-In . SVG Version: 6.00 Build 0)  -->
<!DOCTYPE svg PUBLIC "-//W3C//DTD SVG 1.1//EN" "http://www.w3.org/Graphics/SVG/1.1/DTD/svg11.dtd">
<svg version="1.1" id="Layer_1" xmlns="http://www.w3.org/2000/svg" xmlns:xlink="http://www.w3.org/1999/xlink" x="0px" y="0px"
	 viewBox="0 0 236.2 866" enable-background="new 0 0 236.2 866" xml:space="preserve">
<g>
	<rect x="105" y="52.5" fill="#55422D" width="26.2" height="26.2"/>
	<rect x="105" y="78.7" fill="#55422D" width="26.2" height="26.2"/>
	<rect x="131.2" y="52.5" fill="#55422D" width="26.2" height="26.2"/>
	<rect x="105" y="26.2" fill="#2C3F50" width="26.2" height="26.2"/>
	<rect x="131.2" y="26.2" fill="#2C3F50" width="26.2" height="26.2"/>
	<rect x="157.5" y="26.2" fill="#2C3F50" width="26.2" height="26.2"/>
	<rect x="183.7" y="26.2" fill="#2C3F50" width="26.2" height="26.2"/>
	<rect x="131.2" y="0" fill="#2C3F50" width="26.2" height="26.2"/>
	<rect x="105" y="0" fill="#2C3F50" width="26.2" height="26.2"/>
	<rect x="157.5" y="0" fill="#2C3F50" width="26.2" height="26.2"/>
	<rect x="157.5" y="52.5" fill="#C59474" width="26.2" height="26.2"/>
	<rect x="157.5" y="78.7" fill="#55422D" width="26.2" height="26.2"/>
	<rect x="131.2" y="78.7" fill="#C59474" width="26.2" height="26.2"/>
	<rect x="105" y="105" fill="#C59474" width="26.2" height="26.2"/>
	<rect x="131.2" y="105" fill="#C59474" width="26.2" height="26.2"/>
	<rect x="131.2" y="131.2" fill="#C59474" width="26.2" height="26.2"/>
	<rect x="131.2" y="157.5" fill="#C59474" width="26.2" height="26.2"/>
	<rect x="105" y="131.2" fill="#EFF3F4" width="26.2" height="26.2"/>
	<rect x="157.5" y="131.2" fill="#EFF3F4" width="26.2" height="26.2"/>
	<rect x="105" y="157.5" fill="#EFF3F4" width="26.2" height="26.2"/>
	<rect x="157.5" y="157.5" fill="#EFF3F4" width="26.2" height="26.2"/>
	<rect x="105" y="183.7" fill="#EFF3F4" width="26.2" height="26.2"/>
	<rect x="157.5" y="183.7" fill="#EFF3F4" width="26.2" height="26.2"/>
	<rect x="131.2" y="183.7" fill="#EFF3F4" width="26.2" height="26.2"/>
	<rect x="131.2" y="157.5" fill="#EFF3F4" width="26.2" height="26.2"/>
	<rect x="105" y="209.9" fill="#EFF3F4" width="26.2" height="26.2"/>
	<rect x="157.5" y="209.9" fill="#EFF3F4" width="26.2" height="26.2"/>
	<rect x="131.2" y="209.9" fill="#BCC2C7" width="26.2" height="26.2"/>
	<rect x="131.2" y="157.5" fill="#BCC2C7" width="26.2" height="26.2"/>
	<rect x="105" y="236.3" fill="#EFF3F4" width="26.2" height="26.2"/>
	<rect x="26.2" y="209.9" fill="#DCE1E5" width="26.2" height="26.2"/>
	<rect x="26.2" y="236.3" fill="#DCE1E5" width="26.2" height="26.2"/>
	<rect x="26.2" y="262.6" fill="#DCE1E5" width="26.2" height="26.2"/>
	<rect x="0" y="288.8" fill="#DCE1E5" width="26.2" height="26.2"/>
	<rect x="0" y="315.1" fill="#DCE1E5" width="26.2" height="26.2"/>
	<rect x="0" y="341.3" fill="#DCE1E5" width="26.2" height="26.2"/>
	<rect x="0" y="367.5" fill="#DCE1E5" width="26.2" height="26.2"/>
	<rect x="0" y="393.8" fill="#EFF3F4" width="26.2" height="26.2"/>
	<rect x="0" y="420" fill="#C59474" width="26.2" height="26.2"/>
	<rect x="0" y="446.3" fill="#C59474" width="26.2" height="26.2"/>
	<rect x="0" y="472.5" fill="#C59474" width="26.2" height="26.2"/>
	<rect x="0" y="498.8" fill="#C59474" width="26.2" height="26.2"/>
	<rect x="0" y="525" fill="#C59474" width="26.2" height="26.2"/>
	<rect x="209.9" y="341.3" fill="#EFF3F4" width="26.2" height="26.2"/>
	<rect x="209.9" y="314.9" fill="#EFF3F4" width="26.2" height="26.2"/>
	<rect x="209.9" y="288.7" fill="#EFF3F4" width="26.2" height="26.2"/>
	<rect x="209.9" y="367.5" fill="#EFF3F4" width="26.2" height="26.2"/>
	<rect x="209.9" y="393.8" fill="#DCE1E5" width="26.2" height="26.2"/>
	<rect x="209.9" y="420" fill="#C59474" width="26.2" height="26.2"/>
	<rect x="209.9" y="446.3" fill="#C59474" width="26.2" height="26.2"/>
	<rect x="209.9" y="472.5" fill="#C59474" width="26.2" height="26.2"/>
	<rect x="209.9" y="498.8" fill="#C59474" width="26.2" height="26.2"/>
	<rect x="209.9" y="525" fill="#C59474" width="26.2" height="26.2"/>
	<rect x="0" y="551.2" fill="#C59474" width="26.2" height="26.2"/>
	<rect x="209.9" y="551.2" fill="#C59474" width="26.2" height="26.2"/>
	<rect x="78.7" y="157.5" fill="#DCE1E5" width="26.2" height="26.2"/>
	<rect x="52.5" y="157.5" fill="#DCE1E5" width="26.2" height="26.2"/>
	<rect x="78.7" y="183.7" fill="#DCE1E5" width="26.2" height="26.2"/>
	<rect x="52.5" y="183.7" fill="#DCE1E5" width="26.2" height="26.2"/>
	<rect x="78.7" y="209.9" fill="#DCE1E5" width="26.2" height="26.2"/>
	<rect x="52.5" y="209.9" fill="#DCE1E5" width="26.2" height="26.2"/>
	<rect x="78.7" y="236.2" fill="#DCE1E5" width="26.2" height="26.2"/>
	<rect x="52.5" y="236.2" fill="#DCE1E5" width="26.2" height="26.2"/>
	<rect x="78.7" y="262.4" fill="#DCE1E5" width="26.2" height="26.2"/>
	<rect x="52.5" y="262.4" fill="#DCE1E5" width="26.2" height="26.2"/>
	<rect x="78.7" y="288.7" fill="#DCE1E5" width="26.2" height="26.2"/>
	<rect x="52.5" y="288.7" fill="#DCE1E5" width="26.2" height="26.2"/>
	<rect x="78.7" y="314.9" fill="#DCE1E5" width="26.2" height="26.2"/>
	<rect x="183.7" y="157.5" fill="#EFF3F4" width="26.2" height="26.2"/>
	<rect x="183.7" y="183.7" fill="#EFF3F4" width="26.2" height="26.2"/>
	<rect x="183.7" y="209.9" fill="#EFF3F4" width="26.2" height="26.2"/>
	<rect x="183.7" y="236.2" fill="#EFF3F4" width="26.2" height="26.2"/>
	<rect x="183.7" y="262.4" fill="#EFF3F4" width="26.2" height="26.2"/>
	<rect x="183.7" y="288.7" fill="#EFF3F4" width="26.2" height="26.2"/>
	<rect x="183.7" y="314.9" fill="#DCE1E5" width="26.2" height="26.2"/>
	<rect x="157.5" y="236.3" fill="#EFF3F4" width="26.2" height="26.2"/>
	<rect x="131.2" y="236.3" fill="#EFF3F4" width="26.2" height="26.2"/>
	<rect x="105" y="262.8" fill="#EFF3F4" width="26.2" height="26.2"/>
	<rect x="157.5" y="262.8" fill="#EFF3F4" width="26.2" height="26.2"/>
	<rect x="131.2" y="262.8" fill="#BCC2C7" width="26.2" height="26.2"/>
	<rect x="105" y="289.1" fill="#EFF3F4" width="26.2" height="26.2"/>
	<rect x="157.5" y="289.1" fill="#EFF3F4" width="26.2" height="26.2"/>
	<rect x="131.2" y="289.1" fill="#EFF3F4" width="26.2" height="26.2"/>
	<rect x="105" y="315.3" fill="#EFF3F4" width="26.2" height="26.2"/>
	<rect x="52.5" y="314.9" fill="#BCC2C7" width="26.2" height="26.2"/>
	<rect x="52.5" y="341.2" fill="#BCC2C7" width="26.2" height="26.2"/>
	<rect x="78.7" y="341.2" fill="#BCC2C7" width="26.2" height="26.2"/>
	<rect x="105" y="341.2" fill="#BCC2C7" width="26.2" height="26.2"/>
	<rect x="157.5" y="315.3" fill="#EFF3F4" width="26.2" height="26.2"/>
	<rect x="131.2" y="315.3" fill="#BCC2C7" width="26.2" height="26.2"/>
	<rect x="157.5" y="341.6" fill="#EFF3F4" width="26.2" height="26.2"/>
	<rect x="183.7" y="341.6" fill="#BCC2C7" width="26.2" height="26.2"/>
	<rect x="131.2" y="341.6" fill="#EFF3F4" width="26.2" height="26.2"/>
	<rect x="52.5" y="367.4" fill="#4C392D" width="26.2" height="26.2"/>
	<rect x="78.7" y="367.4" fill="#4C392D" width="26.2" height="26.2"/>
	<rect x="105" y="367.4" fill="#4C392D" width="26.2" height="26.2"/>
	<rect x="157.5" y="367.8" fill="#4C392D" width="26.2" height="26.2"/>
	<rect x="183.7" y="367.8" fill="#4C392D" width="26.2" height="26.2"/>
	<rect x="131.2" y="367.8" fill="#2C3F50" width="26.2" height="26.2"/>
	<rect x="52.5" y="393.6" fill="#1D2933" width="26.2" height="26.2"/>
	<rect x="78.7" y="393.6" fill="#1D2933" width="26.2" height="26.2"/>
	<rect x="105" y="393.6" fill="#1D2933" width="26.2" height="26.2"/>
	<rect x="157.5" y="394" fill="#2C3F50" width="26.2" height="26.2"/>
	<rect x="183.7" y="394" fill="#2C3F50" width="26.2" height="26.2"/>
	<rect x="131.2" y="394" fill="#1D2933" width="26.2" height="26.2"/>
	<rect x="52.5" y="419.9" fill="#1D2933" width="26.2" height="26.2"/>
	<rect x="78.7" y="419.9" fill="#1D2933" width="26.2" height="26.2"/>
	<rect x="105" y="419.9" fill="#2C3F50" width="26.2" height="26.2"/>
	<rect x="157.5" y="420.3" fill="#2C3F50" width="26.2" height="26.2"/>
	<rect x="183.7" y="420.3" fill="#2C3F50" width="26.2" height="26.2"/>
	<rect x="131.2" y="420.3" fill="#2C3F50" width="26.2" height="26.2"/>
	<rect x="52.5" y="446.1" fill="#1D2933" width="26.2" height="26.2"/>
	<rect x="78.7" y="446.1" fill="#2C3F50" width="26.2" height="26.2"/>
	<rect x="105" y="446.1" fill="#2C3F50" width="26.2" height="26.2"/>
	<rect x="157.5" y="446.5" fill="#2C3F50" width="26.2" height="26.2"/>
	<rect x="183.7" y="446.5" fill="#2C3F50" width="26.2" height="26.2"/>
	<rect x="131.2" y="446.5" fill="#2C3F50" width="26.2" height="26.2"/>
	<rect x="52.5" y="472.4" fill="#1D2933" width="26.2" height="26.2"/>
	<rect x="78.7" y="472.4" fill="#2C3F50" width="26.2" height="26.2"/>
	<rect x="52.5" y="498.6" fill="#1D2933" width="26.2" height="26.2"/>
	<rect x="78.7" y="498.6" fill="#2C3F50" width="26.2" height="26.2"/>
	<rect x="52.5" y="524.9" fill="#1D2933" width="26.2" height="26.2"/>
	<rect x="78.7" y="524.9" fill="#2C3F50" width="26.2" height="26.2"/>
	<rect x="52.5" y="551.1" fill="#1D2933" width="26.2" height="26.2"/>
	<rect x="78.7" y="551.1" fill="#2C3F50" width="26.2" height="26.2"/>
	<rect x="52.5" y="577.3" fill="#1D2933" width="26.2" height="26.2"/>
	<rect x="78.7" y="577.3" fill="#2C3F50" width="26.2" height="26.2"/>
	<rect x="52.5" y="603.6" fill="#1D2933" width="26.2" height="26.2"/>
	<rect x="52.5" y="629.8" fill="#1D2933" width="26.2" height="26.2"/>
	<rect x="52.5" y="656.1" fill="#1D2933" width="26.2" height="26.2"/>
	<rect x="52.5" y="682.3" fill="#1D2933" width="26.2" height="26.2"/>
	<rect x="52.5" y="708.6" fill="#1D2933" width="26.2" height="26.2"/>
	<rect x="52.5" y="734.8" fill="#1D2933" width="26.2" height="26.2"/>
	<rect x="52.5" y="761" fill="#1D2933" width="26.2" height="26.2"/>
	<rect x="52.5" y="787.3" fill="#1D2933" width="26.2" height="26.2"/>
	<rect x="52.5" y="813.5" fill="#1D2933" width="26.2" height="26.2"/>
	<rect x="157.5" y="629.8" fill="#2C3F50" width="26.2" height="26.2"/>
	<rect x="157.5" y="656.1" fill="#2C3F50" width="26.2" height="26.2"/>
	<rect x="157.5" y="682.3" fill="#2C3F50" width="26.2" height="26.2"/>
	<rect x="157.5" y="708.6" fill="#2C3F50" width="26.2" height="26.2"/>
	<rect x="157.5" y="734.8" fill="#2C3F50" width="26.2" height="26.2"/>
	<rect x="157.5" y="761" fill="#2C3F50" width="26.2" height="26.2"/>
	<rect x="157.5" y="787.3" fill="#2C3F50" width="26.2" height="26.2"/>
	<rect x="157.5" y="813.5" fill="#2C3F50" width="26.2" height="26.2"/>
	<rect x="52.5" y="839.8" fill="#1D2933" width="26.2" height="26.2"/>
	<rect x="183.7" y="839.8" fill="#1D2933" width="26.2" height="26.2"/>
	<rect x="157.5" y="839.8" fill="#1D2933" width="26.2" height="26.2"/>
	<rect x="78.7" y="603.6" fill="#2C3F50" width="26.2" height="26.2"/>
	<rect x="78.7" y="629.8" fill="#2C3F50" width="26.2" height="26.2"/>
	<rect x="157.5" y="498.6" fill="#2C3F50" width="26.2" height="26.2"/>
	<rect x="183.7" y="498.6" fill="#2C3F50" width="26.2" height="26.2"/>
	<rect x="157.5" y="524.9" fill="#2C3F50" width="26.2" height="26.2"/>
	<rect x="183.7" y="524.9" fill="#2C3F50" width="26.2" height="26.2"/>
	<rect x="157.5" y="551.1" fill="#2C3F50" width="26.2" height="26.2"/>
	<rect x="183.7" y="551.1" fill="#2C3F50" width="26.2" height="26.2"/>
	<rect x="157.5" y="577.3" fill="#2C3F50" width="26.2" height="26.2"/>
	<rect x="183.7" y="577.3" fill="#2C3F50" width="26.2" height="26.2"/>
	<rect x="157.5" y="603.6" fill="#2C3F50" width="26.2" height="26.2"/>
	<rect x="183.7" y="603.6" fill="#2C3F50" width="26.2" height="26.2"/>
	<rect x="105" y="472.4" fill="#2C3F50" width="26.2" height="26.2"/>
	<rect x="157.5" y="472.8" fill="#2C3F50" width="26.2" height="26.2"/>
	<rect x="183.7" y="472.8" fill="#2C3F50" width="26.2" height="26.2"/>
	<rect x="131.2" y="472.8" fill="#2C3F50" width="26.2" height="26.2"/>
	<rect x="78.7" y="131.2" fill="#EFF3F4" width="26.2" height="26.2"/>
</g>
</svg>
